<svg xmlns="http://www.w3.org/2000/svg" width="128" height="238.525" viewBox="0 0 128 238.525">
  <g id="appyTourBrandPurple" transform="translate(-97 -111.475)">
    <text id="APPYHOUR_TOUR" data-name="APPYHOUR
TOUR" transform="translate(161 298)" fill="#fff" font-size="23" font-family="Roboto-Bold, Roboto" font-weight="700"><tspan x="-60.324" y="0">APPY</tspan><tspan y="0" font-family="Roboto-Light, Roboto" font-weight="300">HOUR</tspan><tspan font-size="49"><tspan x="-63.021" y="40">TOUR</tspan></tspan></text>
    <g id="Grupo_1147" data-name="Grupo 1147" transform="translate(115.932 111.475)">
      <g id="Grupo_4" data-name="Grupo 4">
        <path id="Trazado_21" data-name="Trazado 21" d="M267.022,226.587a9.749,9.749,0,0,0-5.863-1.085,3.251,3.251,0,0,1-3.747-2.485,8.911,8.911,0,0,0-10.936-6.347,3.638,3.638,0,0,1-4.034-1.428c-3.685-4.585-8.537-6.673-14.326-5.8-6.665,1.007-10.944,5-12.8,11.506a3.333,3.333,0,0,1-4.023,2.525,10.063,10.063,0,0,0-12.025,10.771c.067.755.342.846.995.841,12.021-.016,24.043.043,36.064-.051a5.99,5.99,0,0,1,4.392,1.772l-3.3,1.593,1.5,22.712,5.142,3.321H248.5l4.665-3.782-.75-16.359.264-4.745c.053-.023.108-.046.164-.066,0,0,.008,0,.012,0,.047-.02.094-.035.146-.051.079-.027.161-.055.248-.079a1.854,1.854,0,0,1,.2-.051,2.234,2.234,0,0,1,.232-.055,1.375,1.375,0,0,1,.181-.035c.055-.012.11-.02.169-.028.086-.016.181-.027.271-.035a7.359,7.359,0,0,1,.771-.039c.11,0,.216,0,.326.008s.2.012.307.023l.058.007,3.578,9.649,7.1-10.82-2.7-.543c.031-.021.06-.045.091-.066.138-.094.275-.181.417-.26a4.643,4.643,0,0,1,.437-.236c.055-.028.114-.055.173-.083l.047-.024.031-.012c.09-.043.181-.083.275-.118.122-.051.244-.1.37-.138s.248-.086.378-.122.256-.071.385-.1.26-.063.393-.086c.094-.02.185-.035.279-.047.13-.019.263-.039.393-.051s.271-.028.405-.035c.079-.008.161-.012.24-.012.283-.012.57-.008.857.008.177.008.35.02.527.039.232.028.472.059.712.1.181.031.362.067.543.11s.366.087.551.138a5.708,5.708,0,0,0,.193-.661A9.023,9.023,0,0,0,267.022,226.587Z" transform="translate(-192.53 -202.543)" fill="#fefefe"/>
        <path id="Trazado_22" data-name="Trazado 22" d="M265.69,292.608c0-.724-.287-.9-1.148-.9-1.707,0-5.045.008-9.383.012-.02.059-.039.122-.055.181s-.036.122-.051.185c-.047.165-.09.334-.126.507q-.047.207-.083.425c-.012.059-.02.118-.031.177-.016.106-.031.213-.047.323-.295-.008-.244-.248-.291-.425-.035-.13-.071-.259-.114-.381s-.075-.232-.118-.346a.056.056,0,0,1-.008-.023c-.043-.106-.082-.208-.13-.307s-.079-.181-.122-.263c-.008-.02-.016-.035-.024-.051h-9.316q-.065.106-.118.213c-.035.067-.071.138-.1.2a3.592,3.592,0,0,0-.208.491l-.059.165c-.043.134-.083.267-.114.4-.027.1-.047.2-.067.3s-.039.22-.055.33-.024.2-.031.311c0,.043-.008.082-.008.126q-.012.177-.012.354c0,4.546.012,9.091-.008,13.637a3.582,3.582,0,0,1-7.011,1.089,3.949,3.949,0,0,1-.134-1.282c0-4.038-.031-8.073-.02-12.108,0-.484,0-.967.008-1.451v-.11c.008-.893.016-1.781.027-2.674H195.014c-1.561,0-3.122.024-4.684.035a3.021,3.021,0,0,0-.185,1.715.744.744,0,0,1,.059.094c0,.008-.039.024-.059.035-.012.291-.028.578-.028.869q-.006,28.608,0,57.216c0,.1,0,46,0,50.369,12.422,0,75.556-1.928,75.556-1.928S265.663,297.787,265.69,292.608ZM222.285,304.04a2.921,2.921,0,0,1,2.839-2.938,2.845,2.845,0,0,1,2.926,3.04A2.735,2.735,0,0,1,225.088,307,2.9,2.9,0,0,1,222.285,304.04Zm-2.128,23.5a3.261,3.261,0,0,1,3.2,3.276,3.054,3.054,0,0,1-3.1,3.3,3.154,3.154,0,0,1-3.437-3.37A3.117,3.117,0,0,1,220.157,327.539ZM210,296.926a2.636,2.636,0,0,1,2.544,2.694,2.409,2.409,0,0,1-2.521,2.175,2.282,2.282,0,0,1-2.485-2.446A2.353,2.353,0,0,1,210,296.926Zm-1.526,13.81a3.321,3.321,0,0,1,3.551,2.041,4.221,4.221,0,0,1,.209,1.624q-.006,8.205,0,16.41,0,8.246,0,16.5c0,2.128-1.27,3.531-3.189,3.547a3.264,3.264,0,0,1-3.405-3.543q0-16.581.008-33.166A3.285,3.285,0,0,1,208.478,310.736Z" transform="translate(-186.998 -252.575)" fill="#f4af00"/>
        <path id="Trazado_23" data-name="Trazado 23" d="M360.437,308.036c3.092-1.085,4.022-3.574,4.162-6.521.074-1.56.021-3.126,0-4.689a5.073,5.073,0,0,1,.178-1.366c.265-1,.708-1.3,1.76-1.209a1.626,1.626,0,0,1,1.535,1.587c.024.607,0,1.216,0,1.824,0,23.909,1.9,79.769,1.921,103.678,0,.691-9.564,0-9.564,0S360.436,316.754,360.437,308.036Z" transform="translate(-290.348 -254.109)" fill="#dd9d00"/>
        <path id="Trazado_25" data-name="Trazado 25" d="M214.656,287.082l.009,110.227-5.947,0,.017-110.224Z" transform="translate(-198.291 -249.769)" fill="#ffcb38"/>
        <path id="Trazado_26" data-name="Trazado 26" d="M351.662,345.648c.541.177.3.637.3.962q.023,14.117.014,28.234,0,3-.007,5.994c0,.024-.02.065-.034.067a.827.827,0,0,1-.147,0q.013-13.032.026-26.063,0-3.257,0-6.516A11.953,11.953,0,0,0,351.662,345.648Z" transform="translate(-285.024 -285.304)" fill="#ffcb38"/>
        <path id="Trazado_27" data-name="Trazado 27" d="M359.235,329.5l-.161.081Z" transform="translate(-289.521 -275.504)" fill="#dd9d00"/>
        <path id="Trazado_28" data-name="Trazado 28" d="M358.828,329.68c-.038.108-.091.121-.163.027A.143.143,0,0,1,358.828,329.68Z" transform="translate(-289.274 -275.607)" fill="#dd9d00"/>
        <path id="Trazado_29" data-name="Trazado 29" d="M223.377,447.316a.2.2,0,0,1,.169-.011Z" transform="translate(-207.186 -346.978)" fill="#dd9d00"/>
        <path id="Trazado_30" data-name="Trazado 30" d="M236.2,360.1q0,8.248,0,16.5c0,2.128-1.272,3.531-3.189,3.547a3.261,3.261,0,0,1-3.4-3.541q0-16.583,0-33.166a3.283,3.283,0,0,1,2.834-3.409,3.319,3.319,0,0,1,3.55,2.04,4.207,4.207,0,0,1,.207,1.624Q236.2,351.893,236.2,360.1Z" transform="translate(-210.965 -281.862)" fill="#1b1919"/>
        <path id="Trazado_31" data-name="Trazado 31" d="M264.573,386.1a3.053,3.053,0,0,1-3.1,3.3,3.292,3.292,0,1,1-.1-6.581A3.26,3.26,0,0,1,264.573,386.1Z" transform="translate(-228.214 -307.86)" fill="#ffcb38"/>
        <path id="Trazado_32" data-name="Trazado 32" d="M277.695,318.633a2.739,2.739,0,0,1-2.96,2.866,2.956,2.956,0,0,1,.034-5.905A2.849,2.849,0,0,1,277.695,318.633Z" transform="translate(-236.642 -267.068)" fill="#ffcb38"/>
        <path id="Trazado_33" data-name="Trazado 33" d="M236.929,309.848a2.283,2.283,0,0,1-2.484-2.446,2.354,2.354,0,0,1,2.463-2.423,2.634,2.634,0,0,1,2.541,2.693A2.411,2.411,0,0,1,236.929,309.848Z" transform="translate(-213.902 -260.628)" fill="#ffcb38"/>
        <path id="Trazado_34" data-name="Trazado 34" d="M223.869,296.326a.319.319,0,0,1,0-.134.637.637,0,0,1,.05.1C223.92,296.3,223.886,296.314,223.869,296.326Z" transform="translate(-207.479 -255.297)" fill="#dd9d00"/>
        <path id="Trazado_35" data-name="Trazado 35" d="M328.61,456.981a3.884,3.884,0,0,1,3.927,3.867,4.012,4.012,0,0,1-4.108,3.992,4.074,4.074,0,0,1-3.873-3.934C324.539,458.979,326.46,456.709,328.61,456.981Z" transform="translate(-268.577 -352.844)" fill="#ffcb38"/>
        <path id="Trazado_36" data-name="Trazado 36" d="M312.189,408.149a2.879,2.879,0,0,1-3.042-2.76,3.174,3.174,0,0,1,3.056-3.137,2.967,2.967,0,0,1,3,2.973A2.754,2.754,0,0,1,312.189,408.149Z" transform="translate(-259.227 -319.648)" fill="#ffcb38"/>
        <path id="Trazado_37" data-name="Trazado 37" d="M264.892,344.246a1.817,1.817,0,0,0,1.818-1.829c-.035-5.554-.138-21.851-.138-21.884,0-4.141.008-8.285-.012-12.426,0-.551.236-.594.676-.59,2,.016,4-.012,6,.016a10.973,10.973,0,0,0,4.07-.751,9.7,9.7,0,0,0,6.551-8.757q-.018-15.336-.012-30.672a7.762,7.762,0,0,0-.189-1.805,10.507,10.507,0,0,0-10.02-7.755c-2.084-.016-4.172-.027-6.256.012-.633.012-.834-.122-.83-.794.008-1.758.2-23.742-.35-25.464-.1-.311.087-.566.2-.822a15.873,15.873,0,0,0,1.392-8.691A15.679,15.679,0,0,0,253.2,208.4a.879.879,0,0,1-.846-.551c-3.3-5.926-8.356-8.757-15.124-8.458a2.02,2.02,0,0,1-1.7-.724,21.606,21.606,0,0,0-13.96-6.406,21.974,21.974,0,0,0-21.608,12.627c-.46.991-.889,1.64-2.108,1.42a4.555,4.555,0,0,0-1.459.142,16.636,16.636,0,0,0-13.877,19.7,24.884,24.884,0,0,1,.794,4.967c-.076,18.49-.042,98.249-.036,111.315a1.815,1.815,0,0,0,1.818,1.814Zm1.676-61.612c0-5.761.008-11.526-.012-17.291,0-.645.11-.9.834-.881,1.852.055,3.708.012,5.56.016a4.974,4.974,0,0,1,2.8.767,2.882,2.882,0,0,1,1.408,2.6c-.024,9.764-.012,19.524-.016,29.284a3.237,3.237,0,0,1-2.977,3.6,30.16,30.16,0,0,1-4.77.134c-.692.02-1.392-.043-2.084.016-.629.051-.763-.185-.759-.779C266.576,294.282,266.568,288.458,266.568,282.634Zm-65.6-69.507a3.333,3.333,0,0,0,4.023-2.525c1.856-6.508,6.134-10.5,12.8-11.506,5.788-.877,10.641,1.211,14.326,5.8a3.638,3.638,0,0,0,4.035,1.427,8.912,8.912,0,0,1,10.936,6.347,3.251,3.251,0,0,0,3.747,2.485,9.748,9.748,0,0,1,5.863,1.085,9.023,9.023,0,0,1,4.42,9.19,5.725,5.725,0,0,1-.193.661c-.185-.051-.37-.1-.551-.138s-.362-.079-.543-.11c-.24-.043-.48-.075-.712-.1-.177-.02-.35-.031-.527-.039-.287-.016-.574-.02-.857-.008-.079,0-.161,0-.24.012-.134.008-.271.02-.405.036s-.263.031-.393.051c-.094.012-.185.027-.279.047-.134.024-.263.055-.393.087s-.26.063-.385.1-.256.079-.378.122-.248.09-.37.138c-.094.035-.185.075-.275.118l-.031.012-.047.024c-.059.028-.118.055-.173.083q-.224.112-.436.236c-.142.083-.279.169-.417.26s-.271.189-.4.287-.256.2-.381.315c-.059.051-.118.106-.177.161-.086.079-.169.161-.252.248s-.177.189-.264.287a7.211,7.211,0,0,0-.48.606c-.087.122-.173.248-.252.378-.051.083-.1.165-.149.248s-.094.161-.138.244c-.063.11-.118.224-.173.338-.09.185-.173.374-.252.566l-.118.319c-.039.106-.075.216-.11.327-.02.059-.039.122-.055.181s-.035.122-.051.185c-.047.165-.09.334-.126.507q-.047.206-.083.425c-.012.059-.02.118-.031.177-.016.106-.032.212-.047.322-.3-.008-.244-.248-.291-.425-.036-.13-.071-.26-.114-.382s-.075-.232-.118-.346a.054.054,0,0,1-.008-.024c-.043-.106-.083-.208-.13-.307s-.079-.181-.122-.263c-.008-.02-.016-.035-.024-.051-.047-.091-.094-.177-.146-.264-.027-.051-.059-.1-.086-.142a.141.141,0,0,0-.02-.032,2.469,2.469,0,0,0-.142-.208,2.971,2.971,0,0,0-.185-.252l-.055-.067c-.031-.039-.063-.071-.094-.106s-.063-.067-.094-.1c-.075-.083-.157-.161-.24-.236-.051-.047-.1-.09-.153-.134-.031-.028-.067-.051-.1-.075a1.491,1.491,0,0,0-.157-.114.255.255,0,0,0-.067-.047,1.469,1.469,0,0,0-.165-.106c-.071-.043-.142-.086-.212-.122a.206.206,0,0,0-.051-.028,1.782,1.782,0,0,0-.2-.094c-.083-.039-.161-.075-.244-.106l-.063-.024c-.083-.031-.169-.059-.252-.082s-.169-.051-.256-.071l-.145-.035c-.063-.016-.13-.028-.2-.039a.258.258,0,0,0-.055-.008c-.067-.012-.134-.023-.2-.031-.012,0-.024,0-.035,0-.055-.008-.11-.016-.169-.02q-.153-.018-.307-.024c-.11,0-.216-.008-.327-.008-.256,0-.507.016-.771.039-.09.008-.185.02-.271.035-.059.008-.114.016-.169.028a1.322,1.322,0,0,0-.181.035,2.233,2.233,0,0,0-.232.055,1.859,1.859,0,0,0-.2.051c-.087.024-.169.051-.248.079-.051.016-.1.031-.146.051,0,0-.008,0-.012,0-.067.024-.134.051-.2.079-.1.039-.193.083-.283.126-.071.035-.141.071-.212.11a1,1,0,0,0-.126.071c-.055.031-.11.063-.161.094-.118.075-.236.153-.35.24a2.313,2.313,0,0,0-.193.153c-.067.051-.13.106-.189.161-.075.067-.149.138-.22.208s-.138.149-.2.224-.126.149-.185.228c-.043.051-.083.106-.122.161s-.063.09-.094.138c-.047.067-.09.138-.134.209s-.082.141-.118.212-.071.138-.1.2a3.619,3.619,0,0,0-.208.492l-.059.165c-.043.134-.083.267-.114.405-.027.1-.047.2-.067.3s-.039.22-.055.33-.024.2-.032.311c0,.043-.008.082-.008.126q-.012.177-.012.354c0,4.546.012,9.092-.008,13.637a3.582,3.582,0,0,1-7.011,1.089,3.945,3.945,0,0,1-.134-1.282c0-4.039-.031-8.073-.02-12.108,0-.484,0-.967.008-1.451v-.11c.008-.893.016-1.781.028-2.674,0-.228,0-.456.008-.684A5.685,5.685,0,0,0,226,224.689c-12.021.094-24.042.035-36.064.051-.653,0-.928-.086-.995-.841A10.063,10.063,0,0,1,200.965,213.128Zm57.322,123.307H191.52a1.661,1.661,0,0,1-1.663-1.656c-.034-11.816.016-83.381.019-100.869,0-.291.028-.578.039-.865v-1c-.1-.4-.02-.641.3-.7a1.1,1.1,0,0,1,.291-.016c.13.008.26.012.393.016.523.016,1.046.012,1.573.02a.192.192,0,0,1,.079-.02.165.165,0,0,1,.083.024h0l6.1.012c1.3-.012,2.6-.035,3.9-.035h9.567q6.064,0,12.127-.016a2.631,2.631,0,0,1,.322.016c.46.059.629.283.625.885-.023,5.179-.016,10.354-.012,15.529,0,.464-.008.81-.661.842a3.426,3.426,0,0,0-2.324,1.2,4.565,4.565,0,0,0-.649,2.556c.016,12.1.039,24.208-.016,36.312a3.334,3.334,0,0,0,3.83,3.5,3.744,3.744,0,0,0,2.458-1.75l.012-.023a8.394,8.394,0,0,0,.236-2.485V255.086a12.9,12.9,0,0,0,4.18,2.635,10.986,10.986,0,0,0,7.047-.33,13.669,13.669,0,0,0,2.843-1.726,1.9,1.9,0,0,1,.126,1.038q.006,15.024,0,30.047a3.822,3.822,0,0,0,.425,2.088,3.151,3.151,0,0,0,3.3,1.6,2.975,2.975,0,0,0,2.643-2.116,4.688,4.688,0,0,1,.248-.535q.012-13.03.024-26.064.006-3.256,0-6.516a11.937,11.937,0,0,0-.153-2.674,3.646,3.646,0,0,0-2.882-2.23c-.236-.031-.507-.024-.436-.37.33-1.593.059-3.213.224-5,1.805,1.435,3.8,1.5,5.847,1.353a.144.144,0,0,1,.161-.028v0c.051-.028.106-.055.161-.083.126-.024.248-.043.374-.067,3.095-1.085,4.023-3.575,4.16-6.52.075-1.561.023-3.126,0-4.687a4.992,4.992,0,0,1,.181-1.368c.263-1,.708-1.3,1.758-1.207a1.628,1.628,0,0,1,1.538,1.589c.024.606,0,1.215,0,1.821v13.224c0,17.692.013,75.275.015,85.8A1.66,1.66,0,0,1,258.286,336.434Z" transform="translate(-182.202 -192.194)" fill="#1b1919"/>
      </g>
      <g id="Grupo_6" data-name="Grupo 6" transform="translate(14.997 108.654)">
        <g id="Grupo_5" data-name="Grupo 5" transform="translate(0 0)">
          <path id="Trazado_38" data-name="Trazado 38" d="M277.572,482.1A24.184,24.184,0,0,1,266.947,495.7a23.014,23.014,0,0,1-11.708,2.969,24.728,24.728,0,0,1-12.482-3.214,25.673,25.673,0,0,1-11.186-13.171c-1.314-4.207,3.242-2.279,3.242-2.279q1.174.326,2.3.6c11.049,2.721,18.128,2.029,18.128,2.029a87.766,87.766,0,0,0,16.639-1.978c1.466-.328,2.277-.563,2.277-.563S278.8,477.81,277.572,482.1Z" transform="translate(-227.01 -475.165)" fill="#1b1919"/>
          <path id="Trazado_39" data-name="Trazado 39" d="M248.569,496.325a29.051,29.051,0,0,1-14.632-3.787,29.925,29.925,0,0,1-13.165-15.633c-1.191-3.815.35-5.943,1.375-6.873,2.529-2.293,5.981-1.335,7.373-.8.641.175,1.3.345,1.951.506,10.077,2.481,16.626,1.93,16.693,1.923l.3-.018a83.6,83.6,0,0,0,15.8-1.875c.823-.184,1.417-.336,1.74-.421,1.48-.642,4.881-1.721,7.467.443,1.068.892,2.693,2.968,1.588,6.838h0a28.553,28.553,0,0,1-12.624,16.153A27.367,27.367,0,0,1,248.569,496.325Zm-17.3-17.754a21.689,21.689,0,0,0,6.969,6.459,20.509,20.509,0,0,0,10.334,2.643,18.035,18.035,0,0,0,16.28-9.188,93.715,93.715,0,0,1-16.049,1.8A63.146,63.146,0,0,1,231.267,478.571Zm-2.288-4.439Z" transform="translate(-220.34 -468.5)" fill="#1b1919"/>
        </g>
        <path id="Trazado_40" data-name="Trazado 40" d="M264.154,487.552s-16.181.978-18.128-5.231c11.049,2.721,18.128,2.03,18.128,2.03a87.824,87.824,0,0,0,16.639-1.978v.312S281.425,486.813,264.154,487.552Z" transform="translate(-235.925 -476.886)" fill="#fff"/>
        <path id="Trazado_41" data-name="Trazado 41" d="M284.574,513.524a23.014,23.014,0,0,1-11.708,2.969,24.729,24.729,0,0,1-12.482-3.214c2.1-2.6,6.686-4.41,12-4.41C277.862,508.869,282.564,510.789,284.574,513.524Z" transform="translate(-244.637 -492.994)" fill="#c81d0e"/>
      </g>
    </g>
  </g>
</svg>
