<svg xmlns="http://www.w3.org/2000/svg" width="237.068" height="34.782" viewBox="0 0 237.068 34.782">
  <g id="Grupo_1160" data-name="Grupo 1160" transform="translate(-22.932 -104.981)">
    <g id="Grupo_1035" data-name="Grupo 1035" transform="translate(22.932 104.981)">
      <g id="Grupo_4" data-name="Grupo 4">
        <path id="Trazado_21" data-name="Trazado 21" d="M214.732,213.215a2.23,2.23,0,0,0-1.341-.248.744.744,0,0,1-.857-.568,2.039,2.039,0,0,0-2.5-1.452.832.832,0,0,1-.923-.327,3.363,3.363,0,0,0-3.277-1.326,3.4,3.4,0,0,0-2.928,2.632.762.762,0,0,1-.92.577,2.3,2.3,0,0,0-2.751,2.464c.015.173.078.193.228.192,2.75,0,5.5.01,8.25-.012a1.37,1.37,0,0,1,1,.405l-.755.365.343,5.2,1.176.76H210.5l1.067-.865-.172-3.742.06-1.085.038-.015h0l.033-.012.057-.018a.426.426,0,0,1,.046-.012.511.511,0,0,1,.053-.013l.041-.008.039-.006c.02,0,.041-.006.062-.008a1.68,1.68,0,0,1,.176-.009l.075,0,.07.005.013,0,.818,2.207,1.624-2.475-.618-.124.021-.015c.032-.022.063-.041.1-.059a1.066,1.066,0,0,1,.1-.054l.04-.019.011-.005.007,0c.021-.01.041-.019.063-.027s.056-.023.085-.031.057-.02.086-.028.058-.016.088-.023.059-.014.09-.02l.064-.011c.03,0,.06-.009.09-.012l.093-.008.055,0c.065,0,.13,0,.2,0,.04,0,.08,0,.121.009s.108.014.163.023.083.015.124.025.084.02.126.031a1.307,1.307,0,0,0,.044-.151A2.064,2.064,0,0,0,214.732,213.215Z" transform="translate(-197.692 -207.715)" fill="#fefefe"/>
        <path id="Trazado_22" data-name="Trazado 22" d="M207.4,291.914c0-.166-.066-.207-.263-.206l-2.146,0c0,.013-.009.028-.013.041s-.008.028-.012.042c-.011.038-.021.076-.029.116s-.013.064-.019.1c0,.013,0,.027-.007.04l-.011.074c-.067,0-.056-.057-.067-.1s-.016-.059-.026-.087-.017-.053-.027-.079a.013.013,0,0,1,0-.005c-.01-.024-.019-.048-.03-.07s-.018-.041-.028-.06l-.005-.012h-2.131q-.015.024-.027.049l-.023.047a.82.82,0,0,0-.048.112l-.014.038c-.01.031-.019.061-.026.093s-.011.046-.015.069-.009.05-.013.076-.005.047-.007.071,0,.019,0,.029q0,.04,0,.081c0,1.04,0,2.08,0,3.12a.819.819,0,0,1-1.6.249.9.9,0,0,1-.031-.293c0-.924-.007-1.847,0-2.77,0-.111,0-.221,0-.332v-.025c0-.2,0-.407.006-.612h-9.543c-.357,0-.714.005-1.071.008a.691.691,0,0,0-.042.392.169.169,0,0,1,.014.022s-.009.005-.014.008c0,.067-.006.132-.006.2q0,6.544,0,13.088c0,.023,0,10.522,0,11.522,2.842,0,17.284-.441,17.284-.441S207.39,293.1,207.4,291.914Zm-9.929,2.615a.668.668,0,0,1,.649-.672.651.651,0,0,1,.669.7.626.626,0,0,1-.677.655A.664.664,0,0,1,197.467,294.529Zm-.487,5.376a.746.746,0,0,1,.732.749.7.7,0,0,1-.71.756.721.721,0,0,1-.786-.771A.713.713,0,0,1,196.98,299.9Zm-2.323-7a.6.6,0,0,1,.582.616.551.551,0,0,1-.577.5.522.522,0,0,1-.569-.56A.538.538,0,0,1,194.658,292.9Zm-.349,3.159a.76.76,0,0,1,.812.467.966.966,0,0,1,.048.372q0,1.877,0,3.754t0,3.774a.732.732,0,0,1-.73.811.747.747,0,0,1-.779-.81q0-3.793,0-7.587A.751.751,0,0,1,194.309,296.061Z" transform="translate(-189.395 -282.756)" fill="#f4af00"/>
        <path id="Trazado_23" data-name="Trazado 23" d="M360.437,297.392a1.457,1.457,0,0,0,.952-1.492c.017-.357,0-.715,0-1.073a1.16,1.16,0,0,1,.041-.313c.061-.228.162-.3.4-.276a.372.372,0,0,1,.351.363c.005.139,0,.278,0,.417,0,5.469.435,18.247.439,23.717a10.123,10.123,0,0,1-2.188,0S360.436,299.386,360.437,297.392Z" transform="translate(-344.404 -285.056)" fill="#dd9d00"/>
        <path id="Trazado_25" data-name="Trazado 25" d="M210.076,287.082l0,25.215h-1.36l0-25.214Z" transform="translate(-206.332 -278.547)" fill="#ffcb38"/>
        <path id="Trazado_26" data-name="Trazado 26" d="M351.662,345.648c.124.041.069.146.07.22q.005,3.229,0,6.459,0,.686,0,1.371c0,.005,0,.015-.008.015a.188.188,0,0,1-.034,0q0-2.981.006-5.962,0-.745,0-1.491A2.735,2.735,0,0,0,351.662,345.648Z" transform="translate(-336.418 -331.844)" fill="#ffcb38"/>
        <path id="Trazado_27" data-name="Trazado 27" d="M359.111,329.5l-.037.019Z" transform="translate(-343.164 -317.146)" fill="#dd9d00"/>
        <path id="Trazado_28" data-name="Trazado 28" d="M358.7,329.669c-.009.025-.021.028-.037.006A.033.033,0,0,1,358.7,329.669Z" transform="translate(-342.792 -317.3)" fill="#dd9d00"/>
        <path id="Trazado_29" data-name="Trazado 29" d="M223.377,447.3a.046.046,0,0,1,.039,0Z" transform="translate(-219.673 -424.345)" fill="#dd9d00"/>
        <path id="Trazado_30" data-name="Trazado 30" d="M231.115,344.578q0,1.887,0,3.774a.732.732,0,0,1-.73.811.746.746,0,0,1-.779-.81q0-3.793,0-7.587a.751.751,0,0,1,.648-.78.759.759,0,0,1,.812.467.963.963,0,0,1,.047.371Q231.114,342.7,231.115,344.578Z" transform="translate(-225.341 -326.682)" fill="#1b1919"/>
        <path id="Trazado_31" data-name="Trazado 31" d="M259.53,383.571a.7.7,0,0,1-.71.756.753.753,0,1,1-.022-1.505A.746.746,0,0,1,259.53,383.571Z" transform="translate(-251.213 -365.674)" fill="#ffcb38"/>
        <path id="Trazado_32" data-name="Trazado 32" d="M273.244,316.289a.627.627,0,0,1-.677.656.676.676,0,0,1,.008-1.351A.652.652,0,0,1,273.244,316.289Z" transform="translate(-263.853 -304.493)" fill="#ffcb38"/>
        <path id="Trazado_33" data-name="Trazado 33" d="M235.014,306.093a.522.522,0,0,1-.568-.56.538.538,0,0,1,.563-.554.6.6,0,0,1,.581.616A.551.551,0,0,1,235.014,306.093Z" transform="translate(-229.746 -294.834)" fill="#ffcb38"/>
        <path id="Trazado_34" data-name="Trazado 34" d="M223.863,296.224a.073.073,0,0,1,0-.031.145.145,0,0,1,.011.022S223.867,296.221,223.863,296.224Z" transform="translate(-220.114 -286.838)" fill="#dd9d00"/>
        <path id="Trazado_35" data-name="Trazado 35" d="M325.483,456.964a.889.889,0,0,1,.9.885.918.918,0,0,1-.94.913.932.932,0,0,1-.886-.9A.919.919,0,0,1,325.483,456.964Z" transform="translate(-311.75 -433.142)" fill="#ffcb38"/>
        <path id="Trazado_36" data-name="Trazado 36" d="M309.843,403.6a.659.659,0,0,1-.7-.631.726.726,0,0,1,.7-.718.679.679,0,0,1,.686.68A.63.63,0,0,1,309.843,403.6Z" transform="translate(-297.728 -383.354)" fill="#ffcb38"/>
        <path id="Trazado_37" data-name="Trazado 37" d="M201.117,226.976a.416.416,0,0,0,.416-.418c-.008-1.27-.032-5-.032-5.006,0-.947,0-1.9,0-2.843,0-.126.054-.136.155-.135.457,0,.915,0,1.372,0a2.51,2.51,0,0,0,.931-.172,2.219,2.219,0,0,0,1.5-2q0-3.508,0-7.016a1.775,1.775,0,0,0-.043-.413,2.4,2.4,0,0,0-2.292-1.774c-.477,0-.954-.006-1.431,0-.145,0-.191-.028-.19-.182,0-.4.047-5.431-.08-5.825-.022-.071.02-.13.047-.188a3.631,3.631,0,0,0,.318-1.988,3.587,3.587,0,0,0-3.338-3.119.2.2,0,0,1-.193-.126,3.519,3.519,0,0,0-3.46-1.935.462.462,0,0,1-.389-.166,4.942,4.942,0,0,0-3.193-1.465,5.027,5.027,0,0,0-4.943,2.888c-.105.227-.2.375-.482.325a1.042,1.042,0,0,0-.334.032,3.805,3.805,0,0,0-3.174,4.507,5.693,5.693,0,0,1,.182,1.136c-.017,4.23-.01,22.475-.008,25.463a.415.415,0,0,0,.416.415Zm.383-14.094c0-1.318,0-2.637,0-3.955,0-.148.025-.207.191-.2.424.013.848,0,1.272,0a1.138,1.138,0,0,1,.641.175.659.659,0,0,1,.322.6c-.005,2.234,0,4.466,0,6.7a.741.741,0,0,1-.681.823,6.9,6.9,0,0,1-1.091.031c-.158,0-.318-.01-.477,0s-.175-.042-.174-.178C201.5,215.547,201.5,214.215,201.5,212.882Zm-15.007-15.9a.762.762,0,0,0,.92-.577,3.4,3.4,0,0,1,2.928-2.632,3.363,3.363,0,0,1,3.277,1.326.832.832,0,0,0,.923.327,2.039,2.039,0,0,1,2.5,1.452.744.744,0,0,0,.857.568,2.23,2.23,0,0,1,1.341.248,2.064,2.064,0,0,1,1.011,2.1,1.31,1.31,0,0,1-.044.151c-.042-.012-.085-.022-.126-.031s-.083-.018-.124-.025-.11-.017-.163-.023-.08-.007-.121-.009c-.066,0-.131,0-.2,0l-.055,0-.093.008c-.03,0-.06.007-.09.012l-.064.011c-.031.005-.06.013-.09.02s-.059.014-.088.023l-.086.028-.085.031c-.022.008-.042.017-.063.027l-.007,0-.011.005-.04.019q-.051.026-.1.054c-.032.019-.064.039-.1.059s-.062.043-.092.066-.058.047-.087.072l-.04.037c-.02.018-.039.037-.058.057l-.06.066a1.65,1.65,0,0,0-.11.139c-.02.028-.04.057-.058.086s-.023.038-.034.057-.022.037-.031.056-.027.051-.04.077c-.021.042-.04.085-.058.13l-.027.073c-.009.024-.017.049-.025.075s-.009.028-.013.041-.008.028-.012.042c-.011.038-.021.076-.029.116s-.014.064-.019.1c0,.014,0,.027-.007.041l-.011.074c-.067,0-.056-.057-.067-.1s-.016-.059-.026-.087-.017-.053-.027-.079a.012.012,0,0,1,0-.005c-.01-.024-.019-.048-.03-.07s-.018-.041-.028-.06l-.005-.012c-.011-.021-.022-.04-.033-.06s-.013-.022-.02-.032a.032.032,0,0,0,0-.007.561.561,0,0,0-.032-.048.682.682,0,0,0-.042-.058l-.013-.015-.022-.024-.022-.023c-.017-.019-.036-.037-.055-.054l-.035-.031-.022-.017a.341.341,0,0,0-.036-.026.059.059,0,0,0-.015-.011.335.335,0,0,0-.038-.024c-.016-.01-.032-.02-.049-.028l-.012-.006a.41.41,0,0,0-.045-.022c-.019-.009-.037-.017-.056-.024l-.014-.005c-.019-.007-.039-.013-.058-.019l-.058-.016-.033-.008-.045-.009-.013,0-.047-.007h-.008l-.039,0-.07-.005-.075,0c-.058,0-.116,0-.176.009-.021,0-.042,0-.062.008l-.039.006a.3.3,0,0,0-.041.008.51.51,0,0,0-.053.013.424.424,0,0,0-.046.012l-.057.018-.033.012h0l-.045.018c-.022.009-.044.019-.065.029l-.049.025a.233.233,0,0,0-.029.016l-.037.022c-.027.017-.054.035-.08.055a.529.529,0,0,0-.044.035c-.015.012-.03.024-.043.037l-.05.048-.047.051c-.014.017-.029.034-.042.052s-.019.024-.028.037l-.022.031c-.011.015-.021.031-.031.048s-.019.032-.027.049l-.023.047a.826.826,0,0,0-.048.112l-.014.038c-.01.031-.019.061-.026.093s-.011.046-.015.069-.009.05-.013.076-.005.047-.007.071,0,.019,0,.029q0,.04,0,.081c0,1.04,0,2.08,0,3.12a.819.819,0,0,1-1.6.249.9.9,0,0,1-.031-.293c0-.924-.007-1.847,0-2.77,0-.111,0-.221,0-.332v-.025c0-.2,0-.408.006-.612,0-.052,0-.1,0-.157a1.3,1.3,0,0,0-1.36-1.365c-2.75.022-5.5.008-8.25.012-.149,0-.212-.02-.228-.193A2.3,2.3,0,0,1,186.494,196.983Zm13.112,28.207H184.333a.38.38,0,0,1-.381-.379c-.008-2.7,0-19.073,0-23.074,0-.067.006-.132.009-.2v-.228c-.023-.092,0-.147.069-.161a.253.253,0,0,1,.067,0l.09,0c.12,0,.239,0,.36,0a.044.044,0,0,1,.018,0,.038.038,0,0,1,.019.005h0l1.4,0c.3,0,.6-.008.893-.008h2.189q1.387,0,2.774,0a.6.6,0,0,1,.074,0c.105.013.144.065.143.2-.005,1.185,0,2.368,0,3.552,0,.106,0,.185-.151.193a.784.784,0,0,0-.532.275,1.044,1.044,0,0,0-.148.585c0,2.769.009,5.538,0,8.306a.763.763,0,0,0,.876.8.856.856,0,0,0,.562-.4l0-.005a1.92,1.92,0,0,0,.054-.569v-7.508a2.951,2.951,0,0,0,.956.6,2.513,2.513,0,0,0,1.612-.076,3.126,3.126,0,0,0,.65-.395.435.435,0,0,1,.029.237q0,3.437,0,6.873a.874.874,0,0,0,.1.478.721.721,0,0,0,.754.367.681.681,0,0,0,.6-.484,1.072,1.072,0,0,1,.057-.122q0-2.981.005-5.962,0-.745,0-1.491a2.731,2.731,0,0,0-.035-.612.834.834,0,0,0-.659-.51c-.054-.007-.116-.005-.1-.085a10.992,10.992,0,0,0,.051-1.143,1.791,1.791,0,0,0,1.338.309.033.033,0,0,1,.037-.006h0l.037-.019.085-.015a1.456,1.456,0,0,0,.952-1.491c.017-.357.005-.715,0-1.072a1.142,1.142,0,0,1,.041-.313c.06-.228.162-.3.4-.276a.372.372,0,0,1,.352.363c.005.139,0,.278,0,.417v3.025c0,4.047,0,17.219,0,19.628A.38.38,0,0,1,199.606,225.189Z" transform="translate(-182.202 -192.194)" fill="#1b1919"/>
      </g>
      <g id="Grupo_6" data-name="Grupo 6" transform="translate(3.431 24.855)">
        <g id="Grupo_5" data-name="Grupo 5" transform="translate(0 0)">
          <path id="Trazado_38" data-name="Trazado 38" d="M241.91,480.084a5.532,5.532,0,0,1-2.43,3.109,5.264,5.264,0,0,1-2.678.679,5.657,5.657,0,0,1-2.855-.735,5.873,5.873,0,0,1-2.559-3.013c-.3-.962.742-.521.742-.521q.269.074.526.137a13.6,13.6,0,0,0,4.147.464,20.077,20.077,0,0,0,3.806-.452c.335-.075.521-.129.521-.129S242.191,479.1,241.91,480.084Z" transform="translate(-230.344 -478.496)" fill="#1b1919"/>
          <path id="Trazado_39" data-name="Trazado 39" d="M226.8,474.865A6.645,6.645,0,0,1,223.45,474a6.845,6.845,0,0,1-3.012-3.576,1.41,1.41,0,0,1,.315-1.572,1.649,1.649,0,0,1,1.687-.184c.147.04.3.079.446.116a12.942,12.942,0,0,0,3.818.44l.069,0a19.125,19.125,0,0,0,3.614-.429c.188-.042.324-.077.4-.1a1.656,1.656,0,0,1,1.708.1,1.393,1.393,0,0,1,.363,1.564h0a6.532,6.532,0,0,1-2.888,3.7A6.261,6.261,0,0,1,226.8,474.865Zm-3.958-4.061a4.961,4.961,0,0,0,1.594,1.478,4.692,4.692,0,0,0,2.364.6,4.126,4.126,0,0,0,3.724-2.1,21.438,21.438,0,0,1-3.671.412A14.446,14.446,0,0,1,222.839,470.8Zm-.523-1.015Z" transform="translate(-220.34 -468.5)" fill="#1b1919"/>
        </g>
        <path id="Trazado_40" data-name="Trazado 40" d="M250.173,483.518s-3.7.224-4.147-1.2a13.6,13.6,0,0,0,4.147.464,20.087,20.087,0,0,0,3.806-.452v.071S254.124,483.348,250.173,483.518Z" transform="translate(-243.715 -481.078)" fill="#fff"/>
        <path id="Trazado_41" data-name="Trazado 41" d="M265.918,509.934a5.264,5.264,0,0,1-2.678.679,5.657,5.657,0,0,1-2.855-.735,3.612,3.612,0,0,1,2.745-1.009A3.533,3.533,0,0,1,265.918,509.934Z" transform="translate(-256.782 -505.238)" fill="#c81d0e"/>
      </g>
    </g>
    <g id="appyTourBrandPurple" transform="translate(6 30)">
      <text id="APPYHOUR_TOURS" data-name="APPYHOUR TOURS" transform="translate(54 103)" fill="#fff" font-size="23" font-family="Roboto-Bold, Roboto" font-weight="700"><tspan x="0" y="0">APPY</tspan><tspan y="0" font-family="Roboto-Light, Roboto" font-weight="300">HOUR TOURS</tspan></text>
    </g>
  </g>
</svg>
