<svg xmlns="http://www.w3.org/2000/svg" width="12.978" height="9.442" viewBox="0 0 12.978 9.442">
  <path id="Trazado_1933" data-name="Trazado 1933" d="M76.372,213.624l0-2.752c0-.7-.489-.8-1.015-.8v7.368H72.634s-.015-5.572-.015-6.572c0-.687-.434-.837-1.012-.837l0,7.409H68.853c.019-.939,0-5.612,0-6.164,0-1.644-1.353-1.518-1.353-1.518l1.875-1.645h.714c.425,0,1.518.331,1.518,1.3l1.484-1.3h.749a1.429,1.429,0,0,1,1.515,1.33l1.516-1.33h.708a1.421,1.421,0,0,1,1.518,1.326l.027,4.181v.725c0,1.643,1.353,1.518,1.353,1.518L78.6,217.512a1.972,1.972,0,0,1-2.233-2.086Z" transform="translate(-67.5 -208.116)" fill="#fff"/>
</svg>
