<svg xmlns="http://www.w3.org/2000/svg" width="31.661" height="43.711" viewBox="0 0 31.661 43.711">
  <g id="maps-and-flags" transform="translate(-70.573)">
    <g id="Grupo_1050" data-name="Grupo 1050" transform="translate(70.573)">
      <g id="Grupo_1051" data-name="Grupo 1051">
        <path id="Trazado_1961" data-name="Trazado 1961" d="M86.4,0a15.848,15.848,0,0,0-15.83,15.83c0,10.833,14.167,26.736,14.77,27.408a1.426,1.426,0,0,0,2.121,0c.6-.672,14.77-16.575,14.77-27.408A15.849,15.849,0,0,0,86.4,0Z" transform="translate(-70.573)" fill="#298888"/>
        <circle id="Elipse_151" data-name="Elipse 151" cx="8.5" cy="8.5" r="8.5" transform="translate(7.403 7.856)" fill="#fff"/>
        <path id="star-solid" d="M26.424.429,24.8,3.714l-3.625.528A.794.794,0,0,0,20.74,5.6l2.622,2.555-.62,3.61a.793.793,0,0,0,1.151.836l3.243-1.7,3.243,1.7a.794.794,0,0,0,1.151-.836l-.62-3.61L33.532,5.6a.794.794,0,0,0-.439-1.355l-3.625-.528L27.848.429A.8.8,0,0,0,26.424.429Z" transform="translate(-11.112 9.361)" fill="#298888"/>
      </g>
    </g>
  </g>
</svg>
