<svg id="Grupo_1054" data-name="Grupo 1054" xmlns="http://www.w3.org/2000/svg" width="31.661" height="43.711" viewBox="0 0 31.661 43.711">
  <path id="Trazado_1961" data-name="Trazado 1961" d="M86.4,0a15.848,15.848,0,0,0-15.83,15.83c0,10.833,14.167,26.736,14.77,27.408a1.426,1.426,0,0,0,2.121,0c.6-.672,14.77-16.575,14.77-27.408A15.849,15.849,0,0,0,86.4,0Z" transform="translate(-70.573)" fill="#c8102e"/>
  <circle id="Elipse_151" data-name="Elipse 151" cx="8.5" cy="8.5" r="8.5" transform="translate(7.403 7.856)" fill="#fff"/>
  <path id="plus-solid" d="M11.382,36.815H7.442v-3.94A.876.876,0,0,0,6.567,32H5.691a.876.876,0,0,0-.876.876v3.94H.876A.876.876,0,0,0,0,37.691v.876a.876.876,0,0,0,.876.876h3.94v3.94a.876.876,0,0,0,.876.876h.876a.876.876,0,0,0,.876-.876v-3.94h3.94a.876.876,0,0,0,.876-.876v-.876A.876.876,0,0,0,11.382,36.815Z" transform="translate(9.85 -21.697)" fill="#c8102e"/>
</svg>
