<svg xmlns="http://www.w3.org/2000/svg" width="31.661" height="43.711" viewBox="0 0 31.661 43.711">
  <g id="marker-" transform="translate(-70.573)">
    <g id="Grupo_1049" data-name="Grupo 1049" transform="translate(70.573)">
      <g id="Trazado_1960" data-name="Trazado 1960" transform="translate(-70.573)" fill="#fff">
        <path d="M 86.40355682373047 42.71126937866211 C 86.40353393554688 42.71126937866211 86.40351867675781 42.71126937866211 86.40350341796875 42.71126937866211 C 86.33257293701172 42.71126937866211 86.19715881347656 42.69295883178711 86.08708190917969 42.57035827636719 C 85.92928314208984 42.39461898803711 82.18161773681641 38.20509719848633 78.56330108642578 32.78937911987305 C 73.99021148681641 25.94458961486816 71.572998046875 20.08029937744141 71.572998046875 15.83049869537354 C 71.572998046875 7.652929306030273 78.22596740722656 0.9999991059303284 86.40358734130859 0.9999991059303284 C 94.58103942871094 0.9999991059303284 101.2340087890625 7.652939319610596 101.2341690063477 15.83051872253418 C 101.2341690063477 20.08029937744141 98.81696319580078 25.94458961486816 94.24386596679688 32.78937911987305 C 90.62571716308594 38.20486068725586 86.87789916992188 42.39461898803711 86.72013092041016 42.57032775878906 C 86.61005401611328 42.69293975830078 86.47456359863281 42.71126937866211 86.40355682373047 42.71126937866211 Z" stroke="none"/>
        <path d="M 86.40358734130859 2 C 78.77738189697266 2 72.572998046875 8.204338073730469 72.572998046875 15.83049964904785 C 72.572998046875 19.88186836242676 74.93193817138672 25.55404853820801 79.39479827880859 32.23384857177734 C 82.3115234375 36.59947204589844 85.30948638916016 40.15540313720703 86.40357971191406 41.41598892211914 C 87.49771118164062 40.15534210205078 90.49590301513672 36.59907531738281 93.41236877441406 32.23384857177734 C 97.87522888183594 25.55404853820801 100.2341690063477 19.88185882568359 100.2341690063477 15.83053970336914 C 100.234016418457 8.204349517822266 94.02964782714844 2 86.40358734130859 2 M 86.40358734130859 0 C 95.13253021240234 0 102.234001159668 7.101558685302734 102.2341690063477 15.83049964904785 C 102.2341690063477 26.66339874267578 88.06733703613281 42.56671905517578 87.46418762207031 43.23843765258789 C 87.18128967285156 43.55353927612305 86.79244232177734 43.71127319335938 86.40345764160156 43.71127319335938 C 86.01485443115234 43.71127319335938 85.62612152099609 43.55378341674805 85.34298706054688 43.23843765258789 C 84.73982238769531 42.56671905517578 70.572998046875 26.66339874267578 70.572998046875 15.83049964904785 C 70.572998046875 7.101558685302734 77.67455291748047 0 86.40358734130859 0 Z" stroke="none" fill="#c8102e"/>
      </g>
      <text id="_4" data-name="4" transform="translate(14.904 26.856)" fill="#c8102e" font-size="25" font-family="Roboto-Light, Roboto" font-weight="300" letter-spacing="-0.175em"><tspan x="-6.927" y="0">4</tspan></text>
    </g>
  </g>
</svg>
