<svg id="Capa_1" data-name="Capa 1" xmlns="http://www.w3.org/2000/svg" viewBox="0 0 31.661 43.7107"><defs><style>.cls-1{fill:#c8102e;}.cls-2{fill:#fff;}</style></defs><g id="maps-and-flags"><g id="Grupo_1050" data-name="Grupo 1050"><g id="Grupo_1051" data-name="Grupo 1051"><g id="Grupo_1052" data-name="Grupo 1052"><path id="Trazado_1961" data-name="Trazado 1961" class="cls-1" d="M15.827,0A15.8479,15.8479,0,0,0-.003,15.83c0,10.833,14.167,26.736,14.77,27.408a1.426,1.426,0,0,0,2.121,0c.6-.672,14.77-16.575,14.77-27.408A15.849,15.849,0,0,0,15.827,0Z" transform="translate(0.003 0)"/><circle id="Elipse_151" data-name="Elipse 151" class="cls-2" cx="15.906" cy="16.356" r="8.5"/></g></g></g></g><path class="cls-1" d="M15.52,19.8868a1.2714,1.2714,0,0,0,1.0322-.4956,2.1114,2.1114,0,0,0,.4034-1.3706v-.5742a2.1812,2.1812,0,0,1-1.7295.8272,2.6465,2.6465,0,0,1-2.1294-.9126,3.6588,3.6588,0,0,1-.7759-2.4507,3.434,3.434,0,0,1,.9707-2.4815A3.3333,3.3333,0,0,1,15.8,11.4239a3.2439,3.2439,0,0,1,2.4858,1.0494,4.0837,4.0837,0,0,1,.9727,2.8881v2.502A3.602,3.602,0,0,1,15.52,21.6642a5.257,5.257,0,0,1-1.0561-.1128,5.8385,5.8385,0,0,1-1.0493-.3179l.3964-1.6474a5.284,5.284,0,0,0,.8272.229A4.9009,4.9009,0,0,0,15.52,19.8868Zm.2119-3.2744a1.609,1.609,0,0,0,.7076-.15,1.4488,1.4488,0,0,0,.5161-.41V14.9376a2.173,2.173,0,0,0-.3247-1.292.9939.9939,0,0,0-.8374-.4443.9619.9619,0,0,0-.8545.5127,2.2435,2.2435,0,0,0-.3145,1.1963,2.3625,2.3625,0,0,0,.2837,1.2339A.908.908,0,0,0,15.7319,16.6124Z" transform="translate(0.003 0)"/></svg>