<svg xmlns="http://www.w3.org/2000/svg" width="32" height="32" viewBox="0 0 32 32">
  <g id="Group_1172" data-name="Group 1172" transform="translate(-133 -295)">
    <circle id="Ellipse_156" data-name="Ellipse 156" cx="16" cy="16" r="16" transform="translate(133 295)" fill="#00baff"/>
    <path id="user-solid" d="M6.481,7.537a3.736,3.736,0,0,0,3.7-3.769A3.736,3.736,0,0,0,6.481,0a3.736,3.736,0,0,0-3.7,3.769A3.736,3.736,0,0,0,6.481,7.537Zm2.592.942H8.59a4.957,4.957,0,0,1-4.218,0H3.888A3.924,3.924,0,0,0,0,12.436v1.225a1.4,1.4,0,0,0,1.389,1.413H11.573a1.4,1.4,0,0,0,1.389-1.413V12.436A3.924,3.924,0,0,0,9.073,8.479Z" transform="translate(142.519 303.463)" fill="#fff"/>
  </g>
</svg>
