<svg xmlns="http://www.w3.org/2000/svg" width="12" height="14" viewBox="0 0 12 14">
  <g id="Grupo_1153" data-name="Grupo 1153" transform="translate(-83 -52)">
    <g id="Grupo_23" data-name="Grupo 23" transform="translate(83.779 52.788)">
      <path id="Trazado_994" data-name="Trazado 994" d="M93.289,133.61v-8.155l0,0-6.786.013v8.147Z" transform="translate(-85.263 -122.408)" fill="#f1be1b"/>
      <path id="Trazado_995" data-name="Trazado 995" d="M53.742,11.739a.988.988,0,0,1-1.454,1.07v2.047a.485.485,0,0,1-.97,0v-.97c0-.335.012-.953-1.067-.953a.322.322,0,0,0-.232.1,1.212,1.212,0,0,1-1.721.022.422.422,0,0,0-.3-.12.242.242,0,0,0-.217.136,1.448,1.448,0,0,1-1.289.817v1.934a.5.5,0,0,1-.5.49.5.5,0,0,1-.5-.485V12.917A1.945,1.945,0,0,1,47.7,11a1.93,1.93,0,0,1,3.137-.343.942.942,0,0,1,.506-.145.97.97,0,0,1,.915.649.97.97,0,0,1,1.484.581Z" transform="translate(-45.258 -9.758)" fill="#fff"/>
      <path id="Trazado_996" data-name="Trazado 996" d="M276.242,451.29a.242.242,0,1,0,.242.242A.243.243,0,0,0,276.242,451.29Z" transform="translate(-270.169 -440.348)"/>
      <path id="Trazado_997" data-name="Trazado 997" d="M135.742,200.29a.242.242,0,0,0-.242.242v4.631a.242.242,0,1,0,.485,0v-4.631A.242.242,0,0,0,135.742,200.29Z" transform="translate(-133.075 -195.434)"/>
      <path id="Trazado_998" data-name="Trazado 998" d="M215.742,200.29a.242.242,0,0,0-.242.242v4.631a.242.242,0,1,0,.485,0v-4.631A.242.242,0,0,0,215.742,200.29Z" transform="translate(-211.136 -195.434)"/>
      <path id="Trazado_999" data-name="Trazado 999" d="M37.706,12.414h4.849A1.214,1.214,0,0,0,43.768,11.2v-.727H44.98a1.214,1.214,0,0,0,1.212-1.212V5.116A1.214,1.214,0,0,0,44.98,3.9H43.768V3.17a1.208,1.208,0,0,0-.462-2.147,1.226,1.226,0,0,0-.7.05A1.214,1.214,0,0,0,41.586.509a1.2,1.2,0,0,0-.457.09,2.17,2.17,0,0,0-3.314.385A2.187,2.187,0,0,0,35.5,3.159V6.068a.734.734,0,0,0,.739.727.727.727,0,0,0,.255-.046V11.2A1.214,1.214,0,0,0,37.706,12.414Zm4.849-.485H37.706a.729.729,0,0,1-.686-.485H40.6a.242.242,0,0,0,0-.485H36.979V4.352a1.683,1.683,0,0,0,1.264-.934.18.18,0,0,1,.129.05,1.455,1.455,0,0,0,2.065-.026.08.08,0,0,1,.057-.024c.377,0,.624.081.734.24a.814.814,0,0,1,.09.459V5.1a.729.729,0,0,0,.485.686V9.73a.242.242,0,1,0,.485,0V5.784a.729.729,0,0,0,.485-.686V3.39a1.287,1.287,0,0,0,.509,0v7.569h-.74a.241.241,0,1,0,0,.482h.7A.731.731,0,0,1,42.556,11.929Zm1.212-6.571h.97V9.019h-.97Zm1.212-.97a.728.728,0,0,1,.727.727V9.262a.728.728,0,0,1-.727.727H43.768V9.5H44.98a.242.242,0,0,0,.242-.242V5.116a.242.242,0,0,0-.242-.242H43.768V4.388ZM36.239,6.311a.252.252,0,0,1-.255-.242V3.159a1.7,1.7,0,0,1,1.707-1.694,1.73,1.73,0,0,1,.22.014.242.242,0,0,0,.242-.122,1.687,1.687,0,0,1,2.745-.3.242.242,0,0,0,.31.043.7.7,0,0,1,.376-.107.728.728,0,0,1,.686.486.242.242,0,0,0,.364.121.727.727,0,0,1,1.112.433.745.745,0,0,1-1.107.8.242.242,0,0,0-.352.216V5.1a.242.242,0,1,1-.485,0V4.118a1.234,1.234,0,0,0-.176-.735,1.288,1.288,0,0,0-1.133-.449.567.567,0,0,0-.406.172.97.97,0,0,1-1.377.017.664.664,0,0,0-.469-.189.487.487,0,0,0-.435.272,1.2,1.2,0,0,1-1.074.681.242.242,0,0,0-.24.242V6.057A.262.262,0,0,1,36.239,6.311Z" transform="translate(-35.5)"/>
    </g>
    <rect id="Rectángulo_1950" data-name="Rectángulo 1950" width="12" height="14" transform="translate(83 52)" fill="none"/>
  </g>
</svg>
