<?xml version="1.0" encoding="iso-8859-1"?>
<!-- Generator: Adobe Illustrator 19.0.0, SVG Export Plug-In . SVG Version: 6.00 Build 0)  -->
<svg version="1.1" id="Capa_1" xmlns="http://www.w3.org/2000/svg" xmlns:xlink="http://www.w3.org/1999/xlink" x="0px" y="0px"
	 viewBox="0 0 512 512" style="enable-background:new 0 0 512 512;" xml:space="preserve">
<g>
	<g>
		<g>
			<rect x="348.494" y="215.739" transform="matrix(-0.9648 -0.2629 0.2629 -0.9648 655.2319 551.1599)" width="32" height="32"/>
			<path d="M293.656,80c0-26.51-21.49-48-48-48c-26.51,0-48,21.49-48,48v160c-44.161,0.053-79.947,35.839-80,80v85.616l64,80V512h32
				v-37.616l-64-80V320c0-26.51,21.49-48,48-48v112h32V80c0-8.837,7.163-16,16-16s16,7.163,16,16v140.224l52.336,14.272l8.4-30.88
				l-28.8-7.84L293.656,80z"/>
			<polygon points="415,228.88 406.6,259.744 437.656,268.224 437.656,410.672 389.656,474.672 389.656,512 421.656,512 
				421.656,485.328 469.656,421.328 469.656,243.776 			"/>
			<polygon points="138.344,164.688 117.656,185.376 117.656,64 85.656,64 85.656,185.376 64.968,164.688 42.344,187.312 
				101.656,246.624 160.968,187.312 			"/>
			<rect x="85.656" width="32" height="32"/>
		</g>
	</g>
</g>
<g>
</g>
<g>
</g>
<g>
</g>
<g>
</g>
<g>
</g>
<g>
</g>
<g>
</g>
<g>
</g>
<g>
</g>
<g>
</g>
<g>
</g>
<g>
</g>
<g>
</g>
<g>
</g>
<g>
</g>
</svg>
