<svg id="Grupo_814" data-name="Grupo 814" xmlns="http://www.w3.org/2000/svg" xmlns:xlink="http://www.w3.org/1999/xlink" width="14.439" height="13.763" viewBox="0 0 14.439 13.763">
  <defs>
    <clipPath id="clip-path">
      <path id="Trazado_1002" data-name="Trazado 1002" d="M0,0H7.14V13.763H0Z" fill="#c8102e"/>
    </clipPath>
    <clipPath id="clip-path-2">
      <path id="Trazado_1003" data-name="Trazado 1003" d="M7.3,0H0V13.763H7.3Z" fill="#707070"/>
    </clipPath>
  </defs>
  <g id="Enmascarar_grupo_1" data-name="Enmascarar grupo 1" clip-path="url(#clip-path)">
    <path id="star-solid" d="M26.76.454,25.048,3.925l-3.83.558a.839.839,0,0,0-.464,1.431l2.771,2.7L22.87,12.43a.838.838,0,0,0,1.216.883l3.427-1.8,3.427,1.8a.839.839,0,0,0,1.216-.883L31.5,8.616l2.771-2.7a.839.839,0,0,0-.464-1.431l-3.83-.558L28.265.454A.84.84,0,0,0,26.76.454Z" transform="translate(-20.373 0.228)" fill="#c8102e"/>
  </g>
  <g id="Enmascarar_grupo_2" data-name="Enmascarar grupo 2" transform="translate(7.14)" clip-path="url(#clip-path-2)">
    <path id="star-solid-2" data-name="star-solid" d="M26.76.454,25.048,3.925l-3.83.558a.839.839,0,0,0-.464,1.431l2.771,2.7L22.87,12.43a.838.838,0,0,0,1.216.883l3.427-1.8,3.427,1.8a.839.839,0,0,0,1.216-.883L31.5,8.616l2.771-2.7a.839.839,0,0,0-.464-1.431l-3.83-.558L28.265.454A.84.84,0,0,0,26.76.454Z" transform="translate(-27.513 0.228)" fill="#707070"/>
  </g>
</svg>
