<?xml version="1.0" encoding="iso-8859-1"?>
<!-- Generator: Adobe Illustrator 19.0.0, SVG Export Plug-In . SVG Version: 6.00 Build 0)  -->
<svg version="1.1" id="Capa_1" xmlns="http://www.w3.org/2000/svg" xmlns:xlink="http://www.w3.org/1999/xlink" x="0px" y="0px"
	 viewBox="0 0 512 512" style="enable-background:new 0 0 512 512;" xml:space="preserve">
<g>
	<g>
		<g>
			<path d="M280,160c0-26.51-21.49-48-48-48c-26.51,0-48,21.49-48,48v113.6c-37.226,7.649-63.958,40.396-64,78.4v69.328l48,64V512
				h32v-37.328l-48-64V352c0.025-20.336,12.837-38.458,32-45.264V384h32V160c0-8.837,7.163-16,16-16s16,7.163,16,16v107.904
				l45.552,13.68l9.2-30.656L280,244.096V160z"/>
			<polygon points="394.704,278.512 385.52,309.168 408,315.904 408,410.672 360,474.672 360,512 392,512 392,485.328 440,421.328 
				440,292.096 			"/>
			<rect x="328.143" y="264.022" transform="matrix(0.2875 -0.9578 0.9578 0.2875 -23.0054 529.1171)" width="32" height="32"/>
			<rect x="216" width="32" height="64"/>
			<rect x="109.482" y="53.493" transform="matrix(0.7071 0.7071 -0.7071 0.7071 90.5783 -79.6886)" width="64" height="32"/>
			<rect x="72" y="144" width="64" height="32"/>
			<rect x="328" y="144" width="64" height="32"/>
			<rect x="290.51" y="53.49" transform="matrix(0.7071 -0.7071 0.7071 0.7071 45.3245 248.402)" width="64" height="32"/>
		</g>
	</g>
</g>
<g>
</g>
<g>
</g>
<g>
</g>
<g>
</g>
<g>
</g>
<g>
</g>
<g>
</g>
<g>
</g>
<g>
</g>
<g>
</g>
<g>
</g>
<g>
</g>
<g>
</g>
<g>
</g>
<g>
</g>
</svg>
