<?xml version="1.0" encoding="utf-8"?>
<!-- Generator: Adobe Illustrator 25.3.1, SVG Export Plug-In . SVG Version: 6.00 Build 0)  -->
<svg version="1.1" id="Capa_1" xmlns="http://www.w3.org/2000/svg" xmlns:xlink="http://www.w3.org/1999/xlink" x="0px" y="0px"
	 viewBox="0 0 512 512" style="enable-background:new 0 0 512 512;" xml:space="preserve">
<style type="text/css">
	.st0{fill:#538787;stroke:#538787;stroke-width:11.4622;stroke-miterlimit:10;}
</style>
<g>
	<path class="st0" d="M65.2,148.8c26.6-47.4,69.7-83,121.3-100.3c47.8-16,98-15.3,145.1,2.1c35,12.9,66.2,34.7,90.4,62.7l-28.4-4.5
		l-4.6,28.7l77.7,12.4l12-76.8L450,68.6l-4.3,27.7c-27.6-32.7-63.5-58.1-104-73c-25.9-9.6-53-14.7-80.5-15.3
		c-28.5-0.6-56.7,3.7-83.9,12.8C118.8,40.5,70,80.9,39.8,134.6C9.9,187.9,0.7,250,13.9,309.4l28.4-6.3
		C30.6,250.7,38.8,195.9,65.2,148.8z"/>
	<path class="st0" d="M494.5,188.3l-28,8c15.4,54.2,9.4,111.6-16.8,161.6c-26.4,50.2-70.5,87.7-124.2,105.7
		c-49.6,16.6-103.6,14.9-151.9-4.9c-38.3-15.6-71.2-41.7-95-74.9l32.1,5.1l4.6-28.7l-77.7-12.4l-12,76.8l28.7,4.5l3.8-24.2
		c26.8,35.6,62.9,63.6,104.6,80.7c29.9,12.2,61.7,18.3,93.5,18.3c26.5,0,53.1-4.3,78.7-12.8c60.9-20.4,110.9-62.9,140.7-119.7
		C505.2,314.7,512,249.7,494.5,188.3L494.5,188.3z"/>
	<path class="st0" d="M366.7,205.3c-36.7-27.5-74.9-42.1-110.7-42.1c-93.5,0-163,92.8-163,92.8s25.2,30.4,52.3,50.8
		c36.7,27.5,74.9,42.1,110.7,42.1c93.4,0,163-92.8,163-92.8S393.8,225.7,366.7,205.3L366.7,205.3z M256,319.5
		c-35,0-63.5-28.5-63.5-63.5c0-35,28.5-63.5,63.5-63.5s63.5,28.5,63.5,63.5C319.5,291,291,319.5,256,319.5z M131.6,256.1
		c8-8.2,21.2-20.6,37.9-32.3c-3.7,10-5.8,20.9-5.8,32.2c0,11.4,2.1,22.3,5.9,32.4C152.8,276.7,139.6,264.3,131.6,256.1z
		 M342.5,288.4c3.8-10.1,5.9-21,5.9-32.4c0-11.3-2-22.2-5.8-32.2c16.7,11.7,29.9,24.1,37.9,32.3
		C372.4,264.3,359.2,276.7,342.5,288.4L342.5,288.4z"/>
</g>
</svg>
